<?xml version="1.0" encoding="UTF-8"?>
<svg width="48px" height="48px" viewBox="0 0 48 48" version="1.1" xmlns="http://www.w3.org/2000/svg" xmlns:xlink="http://www.w3.org/1999/xlink">
    <title>121760A8-559F-4D13-AC84-8820CE65BCD7</title>
    <g id="Page-1" stroke="none" stroke-width="1" fill="none" fill-rule="evenodd">
        <g id="A---UI-Style-Guide" transform="translate(-585.000000, -2532.000000)">
            <g id="Icons" transform="translate(0.000000, 2495.000000)">
                <g id="Arrow-Right" transform="translate(585.000000, 37.000000)">
                    <circle id="Oval" fill="#062D7A" cx="24" cy="24" r="24"></circle>
                    <g id="expand_more-24px" transform="translate(24.000000, 24.000000) rotate(-90.000000) translate(-24.000000, -24.000000) translate(12.000000, 12.000000)">
                        <polygon id="Path" opacity="0.87" points="24 24 0 24 0 0 24 0"></polygon>
                        <g id="arrow-down" transform="translate(5.000000, 4.000000)" fill="#FFFFFF" fill-rule="nonzero">
                            <path d="M-0.665512265,8.45665968 C-0.326233242,8.11738066 0.207631281,8.09128227 0.576846535,8.37836452 L0.665512265,8.45665968 L6.516,14.307 L12.3661619,8.45665968 C12.705441,8.11738066 13.2393055,8.09128227 13.6085207,8.37836452 L13.6971865,8.45665968 C14.0364655,8.7959387 14.0625639,9.32980323 13.7754816,9.69901848 L13.6971865,9.78768421 L7.18134937,16.3035213 C6.84207035,16.6428003 6.30820582,16.6688987 5.93899057,16.3818165 L5.85032484,16.3035213 L-0.665512265,9.78768421 C-1.03306454,9.42013194 -1.03306454,8.82421196 -0.665512265,8.45665968 Z" id="Path"></path>
                            <path d="M14.3348416,6.87782805 C14.854639,6.87782805 15.2760181,7.29920711 15.2760181,7.81900452 C15.2760181,8.30167355 14.9126862,8.69948185 14.4446027,8.75384901 L14.3348416,8.760181 L-1.30316742,8.760181 C-1.82296483,8.760181 -2.24434389,8.33880194 -2.24434389,7.81900452 C-2.24434389,7.3363355 -1.88101195,6.9385272 -1.41292848,6.88416004 L-1.30316742,6.87782805 L14.3348416,6.87782805 Z" id="Line-2" transform="translate(6.515837, 7.819005) rotate(-90.000000) translate(-6.515837, -7.819005) "></path>
                        </g>
                    </g>
                </g>
            </g>
        </g>
    </g>
</svg>