<?xml version="1.0" encoding="UTF-8"?>
<svg width="56px" height="56px" viewBox="0 0 56 56" version="1.1" xmlns="http://www.w3.org/2000/svg" xmlns:xlink="http://www.w3.org/1999/xlink">
    <title>C3811481-B996-4E59-BDA7-E119586571EB</title>
    <g id="Page-1" stroke="none" stroke-width="1" fill="none" fill-rule="evenodd">
        <g id="A---10.-About-Us" transform="translate(-1079.000000, -1936.000000)">
            <g id="Shopping-with-us" transform="translate(0.000000, 1736.000000)">
                <g id="Easy-Returns" transform="translate(919.000000, 200.000000)">
                    <g id="Easy-Return" transform="translate(160.000000, 0.000000)">
                        <rect id="Rectangle" fill="#062D7A" x="0" y="0" width="56" height="56" rx="8"></rect>
                        <g id="Group-3" transform="translate(11.000000, 15.000000)" stroke="#F7F8FB" stroke-linecap="round" stroke-linejoin="round" stroke-width="2">
                            <path d="M3.75,17.4870522 L3.75,3.75 C3.75,1.67893219 5.42893219,0 7.5,0 L26.25,0 C28.3210678,0 30,1.67893219 30,3.75 L30,22.5 C30,24.5710678 28.3210678,26.25 26.25,26.25 L12.3460552,26.25" id="Path"></path>
                            <polygon id="Rectangle" points="12.1875 0 21.5625 0 21.5625 15 16.875 11.25 12.1875 15"></polygon>
                            <circle id="Oval" cx="6.42857143" cy="23.5714286" r="6.42857143"></circle>
                            <polyline id="Path" points="7.0983966 21.4285714 4.95553946 23.5714286 7.0983966 25.7142857"></polyline>
                        </g>
                    </g>
                </g>
            </g>
        </g>
    </g>
</svg>