<?xml version="1.0" encoding="UTF-8"?>
<svg width="24px" height="24px" viewBox="0 0 24 24" version="1.1" xmlns="http://www.w3.org/2000/svg" xmlns:xlink="http://www.w3.org/1999/xlink">
    <title>2709DF01-5D44-45FF-A79C-590158EAA77B</title>
    <g id="Page-1" stroke="none" stroke-width="1" fill="none" fill-rule="evenodd">
        <g id="A---7.1-Checkout-(Login-Signup)" transform="translate(-523.000000, -744.000000)">
            <g id="Social-Acc" transform="translate(507.000000, 697.000000)">
                <g id="G,-FB" transform="translate(0.000000, 39.000000)">
                    <g id="Facebook" transform="translate(16.000000, 8.000000)">
                        <rect id="Rectangle" x="0" y="0" width="24" height="24"></rect>
                        <path d="M12.8416357,20 L12.8416357,12.7014291 L15.4981413,12.7014291 L15.8929368,9.85863268 L12.8416357,9.85863268 L12.8416357,8.04171495 C12.8416357,7.21977598 13.0892193,6.65739668 14.3672862,6.65739668 L16,6.65739668 L16,4.11123986 C15.7189591,4.07415991 14.7486989,4 13.6245353,4 C11.269145,4 9.66319703,5.32869834 9.66319703,7.7636153 L9.66319703,9.86481267 L7,9.86481267 L7,12.7076091 L9.66319703,12.7076091 L9.66319703,20 L12.8416357,20 Z" id="f-copy-2" fill="#FFFFFF" fill-rule="nonzero"></path>
                    </g>
                </g>
            </g>
        </g>
    </g>
</svg>