<?xml version="1.0" encoding="UTF-8"?>
<svg width="24px" height="24px" viewBox="0 0 24 24" version="1.1" xmlns="http://www.w3.org/2000/svg" xmlns:xlink="http://www.w3.org/1999/xlink">
    <title>394C4FC9-FF40-4B9F-930D-9A70DBD407C7</title>
    <g id="Page-1" stroke="none" stroke-width="1" fill="none" fill-rule="evenodd">
        <g id="A---7.1-Checkout-(Login-Signup)" transform="translate(-703.000000, -744.000000)">
            <g id="Social-Acc" transform="translate(507.000000, 697.000000)">
                <g id="G,-FB" transform="translate(0.000000, 39.000000)">
                    <g id="Google" transform="translate(180.000000, 0.000000)">
                        <g transform="translate(16.000000, 8.000000)">
                            <rect id="Rectangle" x="0" y="0" width="24" height="24"></rect>
                            <path d="M16.9935253,18.2171644 C15.6234356,19.3810806 13.8568194,20 12.011375,20 C8.845375,20 6.124375,18.1895 4.8215,15.543625 L4.8215,15.543625 L7.51775,13.485125 C8.139,15.370875 9.909875,16.72725 12.011375,16.72725 C13.040375,16.72725 13.94975,16.4825 14.671875,16.027625 L14.671875,16.027625 L14.8604708,15.9009483 C15.5965229,15.3742981 16.1100288,14.6091827 16.308375,13.636375 L16.308375,13.636375 L12.011375,13.636375 L12.011375,10.5455 L19.476375,10.5455 C19.585625,11.018125 19.6585,11.52725 19.6585,12 C19.6585,14.607625 18.701875,16.641125 17.231125,18.006125 L17.231125,18.006125 Z M12.011375,4 C14.050625,4 15.871375,4.763625 17.2915,6 L17.2915,6 L14.961,8.32725 C14.159875,7.67275 13.14025,7.27275 12.011375,7.27275 C9.90975,7.27275 8.138875,8.629125 7.517625,10.514875 C7.363625,10.982125 7.277375,11.480375 7.277375,12 C7.277375,12.517125 7.3625,13.0135 7.515125,13.478625 L7.515125,13.478625 L4.820375,15.5415 C4.29575,14.47525 4,13.273875 4,12 C4,10.725125 4.296,9.522875 4.8215,8.456 L4.8215,8.456 L4.9477695,8.21046043 C6.29487207,5.69911182 8.9443125,4 12.011375,4 Z" id="Combined-Shape" fill="#FFFFFF"></path>
                        </g>
                    </g>
                </g>
            </g>
        </g>
    </g>
</svg>