<?xml version="1.0" encoding="UTF-8"?>
<svg width="50px" height="50px" viewBox="0 0 50 50" version="1.1" xmlns="http://www.w3.org/2000/svg" xmlns:xlink="http://www.w3.org/1999/xlink">
    <title>Loader</title>
    <g id="Symbols" stroke="none" stroke-width="1" fill="none" fill-rule="evenodd">
        <g id="Loader">
            <path d="M50.0009049,25.0004525 C50.0009049,38.8078475 38.8078475,50 25.0004525,50 C11.1930574,50 2.22044605e-14,38.8078475 2.22044605e-14,25.0004525 C2.22044605e-14,11.1930574 11.1930574,0 25.0004525,0 C38.8078475,0 50.0009049,11.1930574 50.0009049,25.0004525" id="Fill-30" fill="#243B80"></path>
            <g id="Group-6" transform="translate(2.531551, 2.580392)">
                <path d="M44.9374396,22.4682664 C44.9374396,34.8769947 34.8779014,44.9365329 22.4682664,44.9365329 C10.0595382,44.9365329 1.85037171e-14,34.8769947 1.85037171e-14,22.4682664 C1.85037171e-14,10.0586315 10.0595382,1.85037171e-14 22.4682664,1.85037171e-14 C34.8779014,1.85037171e-14 44.9374396,10.0586315 44.9374396,22.4682664" id="Fill-31" fill="#FFFFFE"></path>
                <path d="M43.8174263,23.440492 C43.7158789,26.064404 43.1383281,28.5659151 42.1690945,30.8616115 L23.4299746,23.440492 L43.8174263,23.440492 Z" id="Fill-32" fill="#ACDADC"></path>
                <path d="M23.4221772,23.440492 L23.4276173,23.440492 L42.1631105,30.8752116 C41.0823561,33.4302164 39.5165317,35.7304461 37.5798779,37.6598465 L27.0325496,27.0680912 L23.4221772,23.440492 Z" id="Fill-33" fill="#62C0C7"></path>
                <path d="M23.4208172,23.442668 L23.4208172,23.4408547 L27.0330029,27.0684538 L37.5785179,37.6611158 C35.6418641,39.5896095 33.3361944,41.1463673 30.7757495,42.2171482 L23.4208172,23.442668 Z" id="Fill-34" fill="#2FA0CE"></path>
                <path d="M23.4208172,43.8375544 L23.4208172,23.4455694 L30.7621494,42.2236763 C28.4882132,43.1720563 26.0139023,43.7378204 23.4208172,43.8375544" id="Fill-35" fill="#1F6CA5"></path>
                <path d="M1.1064132,23.3107471 C1.20886726,25.9518859 1.79004473,28.4688104 2.765625,30.7790135 L21.6235191,23.3107471 L1.1064132,23.3107471 Z" id="Fill-36" fill="#7CBC56"></path>
                <path d="M21.6314072,23.3107471 L21.6259671,23.3107471 L2.77079304,30.791707 C3.85880077,33.3639386 5.43459865,35.678675 7.38394584,37.6198622 L17.9974613,26.9610131 L21.6314072,23.3107471 Z" id="Fill-37" fill="#C8D74C"></path>
                <path d="M21.6331298,23.3130138 L21.6331298,23.3112004 L21.6331298,23.3112004 L17.9973706,26.9614664 L7.38566852,37.6221289 C9.33410904,39.5624093 11.6542855,41.1300471 14.2310505,42.2071748 L21.6331298,23.3130138 Z" id="Fill-38" fill="#21264A"></path>
                <path d="M21.6331298,43.8375544 L21.6331298,23.3159151 L14.2446506,42.2127962 C16.5330936,43.1684296 19.0237246,43.7369137 21.6331298,43.8375544" id="Fill-39" fill="#2A3C7D"></path>
                <path d="M1.12010397,21.6280525 C1.22165135,18.9896337 1.80282882,16.4745225 2.77750242,14.1670394 L21.6190764,21.6280525 L1.12010397,21.6280525 Z" id="Fill-40" fill="#40AD59"></path>
                <path d="M21.6269645,21.6280525 L21.6215244,21.6280525 L2.78357713,14.1534393 C3.86977152,11.583021 5.44466272,9.27100459 7.39128989,7.33072413 L17.9966453,17.9814132 L21.6269645,21.6280525 Z" id="Fill-41" fill="#128E4D"></path>
                <path d="M21.6286871,21.6257858 L21.6286871,21.6275991 L21.6286871,21.6275991 L17.9965546,17.9809599 L7.39301257,7.32936412 C9.34054642,5.390897 11.6589096,3.82416586 14.2338612,2.74794487 L21.6286871,21.6257858 Z" id="Fill-42" fill="#16623B"></path>
                <path d="M21.6286871,1.11937863 L21.6286871,21.6228844 L14.2465546,2.7423235 C16.5331842,1.78850338 19.0210953,1.22001934 21.6286871,1.11937863" id="Fill-43" fill="#E6E442"></path>
                <path d="M43.8174263,21.6054763 C43.7158789,18.9679642 43.1347014,16.4537597 42.1600278,14.1453699 L23.3229872,21.6054763 L43.8174263,21.6054763 Z" id="Fill-44" fill="#D93534"></path>
                <path d="M23.3150085,21.6054763 L23.3204485,21.6054763 L42.1547691,14.1317698 C41.0685747,11.5631649 39.4936835,9.25114845 37.5470563,7.31177466 L26.9444209,17.9597437 L23.3150085,21.6054763 Z" id="Fill-45" fill="#E05F37"></path>
                <path d="M23.3131951,21.603663 L23.3131951,21.6054763 L23.3131951,21.6054763 L26.9444209,17.958837 L37.545243,7.30996132 C35.5986158,5.3714942 33.2811593,3.8065764 30.7071144,2.73035542 L23.3131951,21.603663 Z" id="Fill-46" fill="#EA8C3C"></path>
                <path d="M23.3131951,1.1016985 L23.3131951,21.6006709 L30.6935143,2.72464338 C28.4077913,1.76991659 25.9198803,1.20233922 23.3131951,1.1016985" id="Fill-47" fill="#F0A64E"></path>
                <path d="M43.8174263,21.6280525 L23.3084804,21.6280525 L23.3084804,23.3081177 L43.8174263,23.3081177 C43.8283063,23.0288624 43.8355597,22.7496071 43.8355597,22.4685384 C43.8355597,22.1865631 43.8283063,21.9073078 43.8174263,21.6280525" id="Fill-48" fill="#FFFFFE"></path>
                <path d="M21.6286871,21.6280525 L1.1197413,21.6280525 C1.10976789,21.9073078 1.10160783,22.1865631 1.10160783,22.4685384 C1.10160783,22.7496071 1.10976789,23.0288624 1.1197413,23.3081177 L21.6286871,23.3081177 L21.6286871,21.6280525 Z" id="Fill-49" fill="#FFFFFE"></path>
                <path d="M21.6286871,23.3081177 L21.6286871,43.8170636 C21.9079425,43.8279437 22.1871978,43.8351971 22.4682664,43.8351971 C22.7502418,43.8351971 23.0294971,43.8279437 23.3087524,43.8170636 L23.3087524,23.3081177 L21.6286871,23.3081177 Z" id="Fill-50" fill="#FFFFFE"></path>
                <path d="M23.3088431,21.6280525 L23.3088431,1.11910662 C23.0295878,1.10913322 22.7503324,1.10187984 22.4683571,1.10187984 C22.1872884,1.10187984 21.9080331,1.10913322 21.6287778,1.11910662 L21.6287778,21.6280525 L23.3088431,21.6280525 Z" id="Fill-51" fill="#FFFFFE"></path>
                <polygon id="Fill-52" fill="#222C52" points="21.6289591 23.3078457 23.3090244 23.3078457 23.3090244 21.6277805 21.6289591 21.6277805"></polygon>
                <path d="M33.2136122,22.4682664 C33.2136122,28.3407882 28.4526717,33.1017287 22.5792432,33.1017287 C16.7067215,33.1017287 11.9457809,28.3407882 11.9457809,22.4682664 C11.9457809,16.594838 16.7067215,11.8338975 22.5792432,11.8338975 C28.4526717,11.8338975 33.2136122,16.594838 33.2136122,22.4682664" id="Fill-53" fill="#CDCECA"></path>
                <path d="M31.172691,22.4682664 C31.172691,27.2137935 27.325677,31.0608075 22.5792432,31.0608075 C17.8346228,31.0608075 13.9867021,27.2137935 13.9867021,22.4682664 C13.9867021,17.7227394 17.8346228,13.8748187 22.5792432,13.8748187 C27.325677,13.8748187 31.172691,17.7227394 31.172691,22.4682664" id="Fill-54" fill="#FFFFFE"></path>
                <path d="M32.9970986,22.4682664 C32.9970986,28.2211074 28.3331721,32.8850338 22.5794246,32.8850338 C16.8265837,32.8850338 12.1626572,28.2211074 12.1626572,22.4682664 C12.1626572,16.7145189 16.8265837,12.0505924 22.5794246,12.0505924 C28.3331721,12.0505924 32.9970986,16.7145189 32.9970986,22.4682664" id="Fill-55" fill="#FFFFFE"></path>
                <path d="M32.2347679,22.4682664 C32.2347679,27.800411 27.9117505,32.1234284 22.5796059,32.1234284 C17.2474613,32.1234284 12.9244439,27.800411 12.9244439,22.4682664 C12.9244439,17.1361219 17.2474613,12.8131044 22.5796059,12.8131044 C27.9117505,12.8131044 32.2347679,17.1361219 32.2347679,22.4682664" id="Fill-56" fill="#555552"></path>
                <path d="M30.7432906,22.4682664 C30.7432906,26.9771518 27.0884913,30.6310445 22.5796059,30.6310445 C18.0707205,30.6310445 14.4168279,26.9771518 14.4168279,22.4682664 C14.4168279,17.959381 18.0707205,14.3045817 22.5796059,14.3045817 C27.0884913,14.3045817 30.7432906,17.959381 30.7432906,22.4682664" id="Fill-57" fill="#3D3E3C"></path>
                <path d="M26.7867505,22.4682664 C26.7867505,24.7920696 24.9026838,26.6752297 22.5797872,26.6752297 C20.2568907,26.6752297 18.372824,24.7920696 18.372824,22.4682664 C18.372824,20.1444632 20.2568907,18.2613032 22.5797872,18.2613032 C24.9026838,18.2613032 26.7867505,20.1444632 26.7867505,22.4682664" id="Fill-58" fill="#1A1B18"></path>
                <path d="M23.2295999,18.2616659 C23.2295999,19.1692456 22.494288,19.9045575 21.5867082,19.9045575 C20.6791284,19.9045575 19.9429098,19.1692456 19.9429098,18.2616659 C19.9429098,17.3540861 20.6791284,16.6178675 21.5867082,16.6178675 C22.494288,16.6178675 23.2295999,17.3540861 23.2295999,18.2616659" id="Fill-59" fill="#B5B6B3"></path>
                <path d="M25.8814374,25.7151535 C25.8814374,26.2718508 25.4299142,26.723374 24.8732169,26.723374 C24.3165196,26.723374 23.8649964,26.2718508 23.8649964,25.7151535 C23.8649964,25.1584562 24.3165196,24.706933 24.8732169,24.706933 C25.4299142,24.706933 25.8814374,25.1584562 25.8814374,25.7151535" id="Fill-60" fill="#FFFFFE"></path>
            </g>
        </g>
    </g>
</svg>