<?xml version="1.0" encoding="UTF-8"?>
<svg width="32px" height="32px" viewBox="0 0 32 32" version="1.1" xmlns="http://www.w3.org/2000/svg" xmlns:xlink="http://www.w3.org/1999/xlink">
    <title>Logout</title>
    <g id="Page-1" stroke="none" stroke-width="1" fill="none" fill-rule="evenodd">
        <g id="UI-Style-Guide" transform="translate(-1089.000000, -2540.000000)">
            <g id="Icons" transform="translate(0.000000, 2495.000000)">
                <g id="Logout" transform="translate(1089.000000, 45.000000)">
                    <polygon id="Path" points="0 0 32 0 32 32 0 32"></polygon>
                    <g id="power-(1)" transform="translate(7.000000, 6.000000)" fill="#062D7A" fill-rule="nonzero">
                        <path d="M2.92277778,3.93300868 C3.3132383,3.54242063 3.94640327,3.54231725 4.33699132,3.93277778 C4.72757937,4.3232383 4.72768275,4.95640327 4.33722222,5.34699132 C1.21377844,8.47145521 1.21432974,13.5363001 4.33845363,16.660084 C7.46257752,19.7838679 12.5274225,19.7838679 15.6515464,16.660084 C18.7756703,13.5363001 18.7762216,8.47145521 15.6527778,5.34699132 C15.2623173,4.95640327 15.2624206,4.3232383 15.6530087,3.93277778 C16.0435967,3.54231725 16.6767617,3.54242063 17.0672222,3.93300868 C20.971527,7.83858854 20.9708378,14.1696447 17.065683,18.0743745 C13.1605281,21.9791043 6.8294719,21.9791043 2.92431703,18.0743745 C-0.980837829,14.1696447 -0.98152695,7.83858854 2.92277778,3.93300868 Z" id="Path"></path>
                        <path d="M10,-1 C10.5128358,-1 10.9355072,-0.61395981 10.9932723,-0.116621125 L11,0 L11,10 C11,10.5522847 10.5522847,11 10,11 C9.48716416,11 9.06449284,10.6139598 9.00672773,10.1166211 L9,10 L9,0 C9,-0.55228475 9.44771525,-1 10,-1 Z" id="Path"></path>
                    </g>
                </g>
            </g>
        </g>
    </g>
</svg>