<?xml version="1.0" encoding="UTF-8"?>
<svg width="126px" height="32px" viewBox="0 0 126 32" version="1.1" xmlns="http://www.w3.org/2000/svg" xmlns:xlink="http://www.w3.org/1999/xlink">
    <title>9C673D63-FDD7-4E25-95BC-486D2106BF21</title>
    <g id="Page-1" stroke="none" stroke-width="1" fill="none" fill-rule="evenodd">
        <g id="A---7.3-Checkout-(Payment-Method)" transform="translate(-127.000000, -480.000000)" fill-rule="nonzero">
            <g id="Payment-Methods" transform="translate(71.000000, 328.000000)">
                <g id="PayPal" transform="translate(16.000000, 152.000000)">
                    <g transform="translate(103.000000, 16.000000) scale(1, -1) translate(-103.000000, -16.000000) translate(40.000000, 0.000000)">
                        <path d="M22.9108572,29.3831195 C21.4416837,31.0576613 18.7859375,31.7755731 15.3885834,31.7755731 L5.52826989,31.7755731 C4.8334704,31.7759428 4.24163705,31.2708372 4.13281831,30.584612 L0.0289619912,4.54408146 C-0.00954855302,4.29960202 0.0609219101,4.05051886 0.221808032,3.86245261 C0.382694154,3.67438635 0.617861406,3.56638747 0.865355292,3.56638747 L6.95268366,3.56638747 L8.4815369,13.2634597 L8.4341442,12.9597954 C8.54088267,13.6446827 9.13029787,14.1499489 9.82345228,14.1507563 L12.716162,14.1507563 C18.3988971,14.1507563 22.8485446,16.458956 24.1483331,23.1360602 C24.1869494,23.3335297 24.2202998,23.5257334 24.249262,23.7135489 C24.6354247,26.1814796 24.2466291,27.8612874 22.9117349,29.3822418" id="Path" fill="#003087"></path>
                        <path d="M97.4332371,16.991685 C97.0611166,14.5483283 95.1952487,14.5483283 93.3908157,14.5483283 L92.363974,14.5483283 L93.0845185,19.110314 C93.1284006,19.3858938 93.3653641,19.5886292 93.6444544,19.5886292 L94.1157484,19.5886292 C95.3444479,19.5886292 96.5046913,19.5886292 97.1032435,18.8891481 C97.460444,18.4705126 97.568394,17.8491417 97.4332371,16.991685 M96.647747,23.3668801 L89.8407518,23.3668801 C89.3750413,23.3666488 88.9784911,23.0281303 88.9051849,22.5682255 L86.1546533,5.11454909 C86.1290363,4.95080085 86.1762404,4.78403357 86.2838801,4.65800411 C86.3915197,4.53197464 86.5488496,4.45926398 86.7145892,4.45895014 L90.2076064,4.45895014 C90.5332117,4.45895014 90.8105468,4.69591361 90.86145,5.01713077 L91.6425519,9.96703446 C91.7145185,10.4260415 92.1112129,10.7656891 92.5763635,10.7656891 L94.7300982,10.7656891 C99.2148513,10.7656891 101.802141,12.9343437 102.477926,17.2356696 C102.782468,19.1155799 102.490213,20.5935298 101.609938,21.6282703 C100.641898,22.765695 98.9261069,23.3677578 96.6486247,23.3677578" id="Shape" fill="#009CDE"></path>
                        <path d="M48.882054,16.991685 C48.5099336,14.5483283 46.6440657,14.5483283 44.838755,14.5483283 L43.8119133,14.5483283 L44.5324578,19.110314 C44.5763399,19.3858938 44.8133034,19.5886292 45.0923937,19.5886292 L45.5636877,19.5886292 C46.7923872,19.5886292 47.9526306,19.5886292 48.5511828,18.8891481 C48.909261,18.4705126 49.017211,17.8491417 48.882054,16.991685 M48.096564,23.3668801 L41.2895688,23.3668801 C40.8244183,23.3668801 40.4277238,23.0281101 40.3548795,22.5682255 L37.6034703,5.11454909 C37.5775415,4.95074686 37.6246323,4.78380435 37.732338,4.65769746 C37.8400437,4.53159058 37.9975645,4.45895014 38.1634062,4.45895014 L41.414194,4.45895014 C41.8793445,4.45895014 42.2751613,4.79772014 42.3480056,5.25760481 L43.0913688,9.96615682 C43.1633355,10.4260415 43.5600299,10.7648115 44.0251804,10.7648115 L46.1789151,10.7648115 C50.6636683,10.7648115 53.2509584,12.9343437 53.9267431,17.2356696 C54.2312851,19.1155799 53.9390301,20.5935298 53.0587547,21.6282703 C52.090715,22.765695 50.3749239,23.3677578 48.0974416,23.3677578 M63.9002725,10.7253176 C63.5843212,8.8629602 62.1072488,7.61231964 60.2211951,7.61231964 C59.2759741,7.61231964 58.5185687,7.91686158 58.0323547,8.49259506 C57.5496513,9.06306269 57.368857,9.87663728 57.5215668,10.7814867 C57.8146994,12.6280465 59.3172233,13.918181 61.1743149,13.918181 C62.1002277,13.918181 62.850612,13.6110061 63.3473577,13.0300068 C63.8467363,12.4446192 64.0433282,11.6266564 63.9002725,10.7253176 M68.44295,17.0706728 L65.1833858,17.0706728 C64.9034063,17.071008 64.6649679,16.8672177 64.6216946,16.5906024 L64.4795165,15.6796095 L64.2513295,16.0096031 C63.5457049,17.0338119 61.9720919,17.3769701 60.4011118,17.3769701 C56.8001447,17.3769701 53.7240077,14.6475019 53.1254555,10.8209806 C52.8138924,8.91035289 53.2562242,7.08573414 54.3392351,5.81227487 C55.333604,4.64237742 56.752752,4.15528584 58.4439691,4.15528584 C61.3472104,4.15528584 62.9568068,6.0193985 62.9568068,6.0193985 L62.8111181,5.11367144 C62.7851651,4.94971769 62.8323677,4.78262597 62.9402707,4.65648584 C63.0481737,4.53034571 63.2059367,4.45782981 63.3719317,4.4580725 L66.3067682,4.4580725 C66.7719187,4.4580725 67.1686131,4.79596486 67.2414575,5.25672717 L69.0037636,16.4141963 C69.0294278,16.5782473 68.9819998,16.7453121 68.8739661,16.8714077 C68.7659324,16.9975034 68.6081186,17.069994 68.4420724,17.0697952" id="Shape" fill="#003087"></path>
                        <path d="M112.451455,10.7253176 C112.135504,8.8629602 110.658432,7.61231964 108.772378,7.61231964 C107.827157,7.61231964 107.069752,7.91686158 106.583538,8.49259506 C106.100834,9.06306269 105.92004,9.87663728 106.07275,10.7814867 C106.365882,12.6280465 107.867529,13.918181 109.725498,13.918181 C110.651411,13.918181 111.401795,13.6110061 111.898541,13.0300068 C112.397919,12.4446192 112.594511,11.6266564 112.451455,10.7253176 M116.994133,17.0706728 L113.734569,17.0706728 C113.454589,17.071008 113.216151,16.8672177 113.172878,16.5906024 L113.0307,15.6796095 L112.802512,16.0096031 C112.096888,17.0338119 110.523275,17.3769701 108.952295,17.3769701 C105.352205,17.3769701 102.276068,14.6475019 101.676639,10.8209806 C101.365075,8.91035289 101.808285,7.08573414 102.891296,5.81227487 C103.885665,4.64237742 105.304813,4.15528584 106.99603,4.15528584 C109.900149,4.15528584 111.509745,6.0193985 111.509745,6.0193985 L111.364056,5.11367144 C111.337523,4.94991306 111.384274,4.78276642 111.491916,4.65653638 C111.599558,4.53030633 111.757221,4.4577401 111.923115,4.4580725 L114.857074,4.4580725 C115.322224,4.4580725 115.718919,4.79596486 115.79264,5.25672717 L117.554947,16.4141963 C117.580611,16.5782473 117.533183,16.7453121 117.425149,16.8714077 C117.317115,16.9975034 117.159302,17.069994 116.993255,17.0697952" id="Shape" fill="#009CDE"></path>
                        <path d="M85.8035963,17.0697952 L82.5264792,17.0697952 C82.2131608,17.0697952 81.9209059,16.9144525 81.7453774,16.6546703 L77.2255185,9.99862959 L75.309625,16.3948881 C75.1895894,16.7954806 74.8212098,17.0700714 74.4030203,17.0706728 L71.1829499,17.0706728 C70.9997528,17.0706728 70.827852,16.9821162 70.721305,16.8330896 C70.6147579,16.684063 70.5866546,16.4927866 70.6458327,16.3194109 L74.2529434,5.72977648 L70.8599775,0.942236648 C70.7377535,0.769006935 70.7222119,0.542115788 70.8196733,0.353838047 C70.9171347,0.165560305 71.1113652,0.0472570573 71.3233727,0.0470412998 L74.5969792,0.0470412998 C74.9059094,0.0470412998 75.1964091,0.198873452 75.3736929,0.453389777 L86.2687468,16.1789881 C86.3893209,16.352249 86.4036568,16.5781494 86.3059525,16.7652624 C86.2082481,16.9523755 86.0146827,17.0697166 85.8035963,17.0697952" id="Path" fill="#003087"></path>
                        <path d="M120.835574,22.8868097 L118.041161,5.11367144 C118.01552,4.94977192 118.062836,4.78285605 118.170673,4.65679356 C118.278509,4.53073106 118.436081,4.4580725 118.601974,4.4580725 L121.411308,4.4580725 C121.876458,4.4580725 122.273153,4.7968425 122.345997,5.25672717 L125.100917,22.7112812 C125.12687,22.8752349 125.079667,23.0423267 124.971764,23.1684668 C124.863861,23.2946069 124.706098,23.3671228 124.540103,23.366882 L121.396388,23.366882 C121.116752,23.3675923 120.878494,23.1640107 120.835574,22.8876873" id="Path" fill="#009CDE"></path>
                        <path d="M22.9108572,29.3831195 C21.4416837,31.0576613 18.7859375,31.7755731 15.3885834,31.7755731 L5.52826989,31.7755731 C4.8334704,31.7759428 4.24163705,31.2708372 4.13281831,30.584612 L0.0289619912,4.54408146 C-0.00954855302,4.29960202 0.0609219101,4.05051886 0.221808032,3.86245261 C0.382694154,3.67438635 0.617861406,3.56638747 0.865355292,3.56638747 L6.95268366,3.56638747 L8.4815369,13.2634597 L8.4341442,12.9597954 C8.54088267,13.6446827 9.13029787,14.1499489 9.82345228,14.1507563 L12.716162,14.1507563 C18.3988971,14.1507563 22.8485446,16.458956 24.1483331,23.1360602 C24.1869494,23.3335297 24.2202998,23.5257334 24.249262,23.7135489 C24.6354247,26.1814796 24.2466291,27.8612874 22.9117349,29.3822418" id="Path" fill="#003087"></path>
                        <path d="M10.123606,23.6810761 C10.2188929,24.2806301 10.7355731,24.7221704 11.3426514,24.7228378 L19.0729266,24.7228378 C19.9883077,24.7228378 20.8422538,24.6631581 21.622478,24.5385329 C22.04906,24.4699053 22.4710994,24.3755326 22.8862832,24.255932 C23.3577891,24.123373 23.8140412,23.9415782 24.2475067,23.7135489 C24.6354247,26.1823573 24.2457515,27.8612874 22.9108572,29.3831195 C21.440806,31.0567837 18.7859375,31.7746953 15.3885834,31.7746953 L5.52739224,31.7746953 C4.83325748,31.7742019 4.24241051,31.2693031 4.13369596,30.5837344 L0.0280843487,4.54583675 C-0.0106869461,4.30137211 0.059540974,4.05218973 0.220263101,3.86394901 C0.380985227,3.67570828 0.616079963,3.56726536 0.863600007,3.56726536 L6.95180602,3.56726536 L8.48065925,13.265215 L10.123606,23.6810761 L10.123606,23.6810761 Z" id="Path" fill="#003087"></path>
                        <path d="M24.2483844,23.7144266 C24.2182589,23.5213321 24.1846103,23.3288037 24.1474555,23.1369378 C22.847667,16.4607113 18.3980195,14.1516339 12.7152843,14.1516339 L9.82169699,14.1516339 C9.12860103,14.1511343 8.53926423,13.6456159 8.43326656,12.960673 L6.95180602,3.568143 L6.53053762,0.903620378 C6.49663838,0.689538132 6.55820742,0.471349329 6.69901572,0.306566474 C6.83982402,0.141783619 7.04574194,0.0470412221 7.26249146,0.0470412221 L12.3940672,0.0470412221 C13.0013958,0.0470412221 13.5174496,0.489373119 13.6131126,1.08880295 L13.6631382,1.35034041 L14.6303002,7.47979562 L14.6917352,7.81856562 C14.7867318,8.41863948 15.3041116,8.86045946 15.9116583,8.86032727 L16.6795955,8.86032727 C21.6505626,8.86032727 25.5429071,10.878905 26.6803317,16.7204935 C27.1542587,19.1603396 26.9085188,21.1991032 25.65349,22.6305381 C25.2549823,23.0743294 24.7788088,23.4416462 24.2483844,23.7144266" id="Path" fill="#009CDE"></path>
                        <path d="M22.8871609,24.255932 C22.6888137,24.314734 22.484323,24.3673926 22.2736888,24.4139076 C22.0630546,24.4604227 21.8453992,24.5016719 21.622478,24.5367776 C20.8413762,24.6640357 19.9883077,24.7237164 19.0720489,24.7237164 L11.3426514,24.7237164 C10.7347433,24.7244579 10.21713,24.2817475 10.123606,23.6810761 L8.48065925,13.2634597 L8.43326656,12.960673 C8.53926423,13.6456159 9.12860103,14.1511343 9.82169699,14.1516339 L12.7152843,14.1516339 C18.3980195,14.1516339 22.847667,16.4598337 24.1474555,23.1369378 C24.1860718,23.3344074 24.2185445,23.5257334 24.2483844,23.7144266 C23.9051209,23.8940376 23.5475769,24.0449223 23.1794158,24.1655348 C23.0837528,24.1971299 22.9863345,24.2269698 22.8871609,24.2568096" id="Path" fill="#012169"></path>
                    </g>
                </g>
            </g>
        </g>
    </g>
</svg>