<?xml version="1.0" encoding="UTF-8"?>
<svg width="20px" height="20px" viewBox="0 0 20 20" version="1.1" xmlns="http://www.w3.org/2000/svg" xmlns:xlink="http://www.w3.org/1999/xlink">
    <title>FDBE653E-A8F5-436C-889D-34E85DD3349A</title>
    <g id="Page-1" stroke="none" stroke-width="1" fill="none" fill-rule="evenodd">
        <g id="A---UI-Style-Guide" transform="translate(-70.000000, -2546.000000)" fill="#062D7A" fill-rule="nonzero">
            <g id="Icons" transform="translate(0.000000, 2495.000000)">
                <g id="search" transform="translate(71.000000, 52.000000)">
                    <path d="M8,-1 C3.02943725,-1 -1,3.02943725 -1,8 C-1,12.9705627 3.02943725,17 8,17 C12.9705627,17 17,12.9705627 17,8 C17,3.02943725 12.9705627,-1 8,-1 Z M8,1 C11.8659932,1 15,4.13400675 15,8 C15,11.8659932 11.8659932,15 8,15 C4.13400675,15 1,11.8659932 1,8 C1,4.13400675 4.13400675,1 8,1 Z" id="Oval"></path>
                    <path d="M12.9428932,12.9428932 C13.3033772,12.5824093 13.8706082,12.5546797 14.2628994,12.8597046 L14.3571068,12.9428932 L18.7071068,17.2928932 C19.0976311,17.6834175 19.0976311,18.3165825 18.7071068,18.7071068 C18.3466228,19.0675907 17.7793918,19.0953203 17.3871006,18.7902954 L17.2928932,18.7071068 L12.9428932,14.3571068 C12.5523689,13.9665825 12.5523689,13.3334175 12.9428932,12.9428932 Z" id="Path"></path>
                </g>
            </g>
        </g>
    </g>
</svg>