<?xml version="1.0" encoding="UTF-8"?>
<svg width="24px" height="24px" viewBox="0 0 24 24" version="1.1" xmlns="http://www.w3.org/2000/svg" xmlns:xlink="http://www.w3.org/1999/xlink">
    <title>Twitter</title>
    <g id="Page-1" stroke="none" stroke-width="1" fill="none" fill-rule="evenodd">
        <g id="Twitter">
            <rect id="Rectangle" fill="#4099FF" x="0" y="0" width="24" height="24" rx="12"></rect>
            <g id="twitter" transform="translate(5.000000, 6.000000)" fill="#FFFFFF" fill-rule="nonzero">
                <path d="M14,1.346625 C13.479375,1.575 12.924625,1.726375 12.34625,1.799875 C12.94125,1.444625 13.395375,0.886375 13.608875,0.2135 C13.054125,0.54425 12.441625,0.777875 11.788875,0.90825 C11.262125,0.347375 10.511375,0 9.692375,0 C8.103375,0 6.824125,1.28975 6.824125,2.870875 C6.824125,3.098375 6.843375,3.317125 6.890625,3.525375 C4.5045,3.409 2.393125,2.265375 0.97475,0.52325 C0.727125,0.952875 0.581875,1.444625 0.581875,1.974 C0.581875,2.968 1.09375,3.849125 1.85675,4.35925 C1.395625,4.3505 0.94325,4.216625 0.56,4.00575 C0.56,4.0145 0.56,4.025875 0.56,4.03725 C0.56,5.432 1.554875,6.5905 2.8595,6.857375 C2.625875,6.92125 2.37125,6.951875 2.107,6.951875 C1.92325,6.951875 1.73775,6.941375 1.563625,6.902875 C1.9355,8.0395 2.99075,8.875125 4.2455,8.90225 C3.269,9.666125 2.029125,10.126375 0.686875,10.126375 C0.4515,10.126375 0.22575,10.115875 0,10.087 C1.271375,10.906875 2.778125,11.375 4.403,11.375 C9.6845,11.375 12.572,7 12.572,3.20775 C12.572,3.080875 12.567625,2.958375 12.5615,2.83675 C13.131125,2.4325 13.60975,1.927625 14,1.346625 Z" id="Path"></path>
            </g>
        </g>
    </g>
</svg>