<?xml version="1.0" encoding="UTF-8"?>
<svg width="24px" height="24px" viewBox="0 0 24 24" version="1.1" xmlns="http://www.w3.org/2000/svg" xmlns:xlink="http://www.w3.org/1999/xlink">
    <title>Youtube</title>
    <g id="Page-1" stroke="none" stroke-width="1" fill="none" fill-rule="evenodd">
        <g id="Youtube">
            <rect id="Rectangle" fill="#E2302F" x="0" y="0" width="24" height="24" rx="12"></rect>
            <g id="youtube" transform="translate(5.000000, 7.000000)" fill="#FFFFFF" fill-rule="nonzero">
                <path d="M13.7115234,1.55389404 C13.5501953,0.954125987 13.0773193,0.481335444 12.4776367,0.319836431 C11.3820923,0.0200805719 6.99982911,0.0200805719 6.99982911,0.0200805719 C6.99982911,0.0200805719 2.61773682,0.0200805719 1.52219239,0.308471669 C0.934045416,0.469799794 0.4496338,0.954211431 0.288305675,1.55389404 C-3.88578059e-17,2.64935302 -3.88578059e-17,4.92119141 -3.88578059e-17,4.92119141 C-3.88578059e-17,4.92119141 -3.88578059e-17,7.20447997 0.288305675,8.28848877 C0.449804687,8.88817138 0.922509766,9.36096192 1.52227784,9.52246094 C2.62927245,9.82230224 7,9.82230224 7,9.82230224 C7,9.82230224 11.3820923,9.82230224 12.4776367,9.53391114 C13.0774048,9.37249755 13.5501953,8.89970703 13.7116943,8.30002443 C13.9999734,7.20447997 13.9999734,4.93272706 13.9999734,4.93272706 C13.9999734,4.93272706 14.0114502,2.64935302 13.7115234,1.55389404 L13.7115234,1.55389404 Z M5.60461427,7.01999511 L5.60461427,2.82238771 L9.24868164,4.92119141 L5.60461427,7.01999511 Z" id="Shape"></path>
            </g>
        </g>
    </g>
</svg>